<?xml version="1.0" ?><svg width="64px" height="64px" viewBox="0 0 64 64" id="Layer_1" style="enable-background:new 0 0 64 64;" version="1.1" xml:space="preserve" xmlns="http://www.w3.org/2000/svg" xmlns:xlink="http://www.w3.org/1999/xlink"><style type="text/css">
	.st0{fill:#1379C2;}
	.st1{fill:#358DCC;}
	.st2{fill-rule:evenodd;clip-rule:evenodd;fill:#3FB754;}
	.st3{fill-rule:evenodd;clip-rule:evenodd;fill:#CCCCCC;}
	.st4{fill:#5D5E61;}
	.st5{fill:#924F34;}
	.st6{fill:#E6E6E6;}
	.st7{fill:#0F8C7E;}
	.st8{fill-rule:evenodd;clip-rule:evenodd;fill:#E6E6E6;}
	.st9{fill-rule:evenodd;clip-rule:evenodd;fill:#E6E6E6;stroke:#000000;stroke-width:0.4799;stroke-miterlimit:2.6131;}
	.st10{fill:#823B1F;}
	.st11{fill:#FFC810;}
	.st12{fill-rule:evenodd;clip-rule:evenodd;fill:#924F34;}
	.st13{fill:#E04538;}
	.st14{fill-rule:evenodd;clip-rule:evenodd;}
	.st15{fill-rule:evenodd;clip-rule:evenodd;fill:#FFC810;}
	.st16{fill-rule:evenodd;clip-rule:evenodd;fill:#E4E7E9;}
	.st17{fill:#3FB754;}
	.st18{fill-rule:evenodd;clip-rule:evenodd;fill:#5D5E61;}
	.st19{fill:#C92B1C;}
	.st20{fill:#666666;}
	.st21{fill:#FFD95E;}
	.st22{fill:#4D4D4D;}
	.st23{fill-rule:evenodd;clip-rule:evenodd;fill:#0F8C7E;}
	.st24{fill:#999999;}
	.st25{fill:#CCCCCC;}
	.st26{fill-rule:evenodd;clip-rule:evenodd;fill:#358DCC;}
	.st27{fill-rule:evenodd;clip-rule:evenodd;fill:#823B1F;}
</style><g><path class="st0" d="M38.1,15.4C37,9.7,32,5.5,26.2,5.5C19.5,5.5,14,10.9,14,17.6v43.2c0,1.2-1,2.3-2.2,2.3c-1.2,0-2.3-1-2.3-2.3   V17.6C9.5,8.5,17,1,26.2,1c8.3,0,15.4,6.2,16.5,14.4H38.1L38.1,15.4z"/><path class="st25" d="M38.3,38.1c0-1.2,1-2.2,2.3-2.2c1.2,0,2.2,1,2.2,2.2v6.6c0,1.2-1,2.2-2.2,2.2c-1.2,0-2.3-1-2.3-2.2V38.1   L38.3,38.1z M46.9,38.1c0-1.2,1-2.2,2.2-2.2c1.2,0,2.3,1,2.3,2.2v6.6c0,1.2-1,2.2-2.3,2.2c-1.2,0-2.2-1-2.2-2.2V38.1L46.9,38.1z    M29.8,38.1c0-1.2,1-2.2,2.2-2.2c1.2,0,2.2,1,2.2,2.2v6.6c0,1.2-1,2.2-2.2,2.2c-1.2,0-2.2-1-2.2-2.2V38.1L29.8,38.1z"/><path d="M37.4,38.1c0-1.8,1.4-3.2,3.2-3.2c1.8,0,3.2,1.4,3.2,3.2v6.6c0,1.8-1.4,3.2-3.2,3.2c-1.8,0-3.2-1.4-3.2-3.2V38.1L37.4,38.1   z M39.3,38.1v6.6c0,0.7,0.6,1.3,1.3,1.3c0.7,0,1.3-0.6,1.3-1.3v-6.6c0-0.7-0.6-1.3-1.3-1.3C39.9,36.8,39.3,37.4,39.3,38.1   L39.3,38.1z M45.9,38.1c0-1.8,1.4-3.2,3.2-3.2c1.8,0,3.2,1.4,3.2,3.2v6.6c0,1.8-1.4,3.2-3.2,3.2c-1.8,0-3.2-1.4-3.2-3.2V38.1   L45.9,38.1z M47.8,38.1v6.6c0,0.7,0.6,1.3,1.3,1.3c0.7,0,1.3-0.6,1.3-1.3v-6.6c0-0.7-0.6-1.3-1.3-1.3   C48.4,36.8,47.8,37.4,47.8,38.1L47.8,38.1z M28.8,38.1c0-1.8,1.4-3.2,3.2-3.2c1.8,0,3.2,1.4,3.2,3.2v6.6c0,1.8-1.4,3.2-3.2,3.2   c-1.8,0-3.2-1.4-3.2-3.2V38.1L28.8,38.1z M30.8,38.1v6.6c0,0.7,0.6,1.3,1.3,1.3c0.7,0,1.3-0.6,1.3-1.3v-6.6c0-0.7-0.6-1.3-1.3-1.3   C31.3,36.8,30.8,37.4,30.8,38.1L30.8,38.1z"/><path class="st1" d="M42.4,14.4h4v0c0.9,0,1.7,0.5,2.1,1.4l5.8,14.2l0,0c0.1,0.3,0.2,0.5,0.2,0.8c0,1.2-1,2.2-2.2,2.2l-23.6,0.2   c-0.3,0-0.6,0-1-0.2c-1.1-0.5-1.7-1.8-1.2-2.9L32.1,16c0.3-0.9,1.1-1.6,2.1-1.6h0h3.7H42.4L42.4,14.4z"/><path class="st0" d="M41.8,14.4h2.7v0c0.6,0,1.2,0.5,1.4,1.4l3.9,14.2l0,0c0.1,0.3,0.1,0.5,0.1,0.8c0,1.2-0.7,2.2-1.5,2.2l-16,0.2   c-0.2,0-0.4,0-0.7-0.2c-0.8-0.5-1.2-1.8-0.8-2.9L34.7,16c0.2-0.9,0.8-1.6,1.4-1.6h0h2.5H41.8L41.8,14.4z"/><path d="M43.3,13.4c1.1,0,2.1,0,3.2,0c1.3,0,2.4,0.7,3,2l5.8,14.2c0.5,1.1,0.3,2.4-0.7,3.5c-0.6,0.6-1.4,0.9-2.3,0.9l-11.9,0.1   l-7.9,0.1c-0.2,0-0.3,0-0.5,0l-3.3,0c-1.3,0.1-2.6-0.7-3.1-1.9c-0.3-0.8-0.4-1.6,0-2.5l5.7-14.2c0.4-1.3,1.6-2.2,3-2.2l0,0h0h2.3   c-1.7-4.2-5.8-7-10.4-7C20,6.4,15,11.5,15,17.6v43.2c0,1.8-1.4,3.2-3.2,3.2s-3.2-1.4-3.2-3.2V17.6C8.6,7.9,16.5,0,26.2,0   C34.3,0,41.4,5.6,43.3,13.4L43.3,13.4z M38.6,13.4L38.6,13.4h2.7C39.4,6.7,33.2,1.9,26.2,1.9c-8.6,0-15.7,7.1-15.7,15.7v43.2   c0,0.7,0.6,1.3,1.3,1.3c0.7,0,1.3-0.6,1.3-1.3V17.6c0-7.2,5.9-13.1,13.1-13.1C31.8,4.5,36.8,8.1,38.6,13.4L38.6,13.4z M36.2,15.4   c-0.3,0.1-0.4,0.6-0.5,0.9l-3.9,14.2v0c-0.1,0.5-0.1,1.5,0.4,1.8l0,0l8.1-0.1l8.1-0.1h0c0.1,0,0.2-0.1,0.3-0.2   c0.5-0.8,0.2-1.6,0-2.4l0,0L45,16.1c0-0.1-0.3-0.7-0.5-0.7C41.7,15.4,39,15.4,36.2,15.4L36.2,15.4L36.2,15.4z M46.8,15.4l3.9,14.4   c0.2,0.8,0.2,1.5-0.1,2.4l1.6,0h0c1.7,0,1.2-1.6,0.8-2.6l0,0l-5.4-13.4C47.5,15.8,47.2,15.5,46.8,15.4L46.8,15.4z M30,32.3l0-0.1v0   c-0.2-0.7-0.2-1.5,0-2.2h0l3.8-14.2c0-0.1,0.1-0.2,0.1-0.3c-0.2,0-0.3,0.1-0.4,0.2l0,0c-0.3,0.2-0.4,0.4-0.5,0.7l-5.7,14.2   C27,31.2,27.3,32,28,32.2v0C28.4,32.4,29.6,32.3,30,32.3L30,32.3z"/></g></svg>