<?xml version="1.0" encoding="iso-8859-1"?>
<!-- Generator: Adobe Illustrator 19.0.0, SVG Export Plug-In . SVG Version: 6.00 Build 0)  -->
<svg version="1.1" id="Layer_1" xmlns="http://www.w3.org/2000/svg" xmlns:xlink="http://www.w3.org/1999/xlink" x="0px" y="0px"
	 viewBox="0 0 512 512" style="enable-background:new 0 0 512 512;" xml:space="preserve">
<polygon style="fill:#FED159;" points="354.605,28.415 354.605,259.719 132.939,259.719 126.916,264.321 51.019,322.364 
	51.019,259.719 10.059,259.719 10.059,28.415 "/>
<path style="fill:#F6C454;" d="M354.605,164.074v94.053H132.939l-6.024,6.195v-89.984c0-5.668,4.595-10.263,10.263-10.263H354.605z"
	/>
<polyline style="fill:#82DCC7;" points="245.754,421.15 381.109,421.15 463.029,483.794 463.029,421.15 503.989,421.15 
	503.989,189.846 159.443,189.846 159.443,421.15 213.227,421.15 "/>
<path d="M502.965,180.706H158.419c-4.99,0-9.035,4.045-9.035,9.035v60.838h-15.312c-1.984,0-3.913,0.653-5.489,1.858l-67.396,51.538
	v-44.361c0-4.99-4.045-9.035-9.035-9.035H18.071V102.531c0-4.99-4.045-9.035-9.035-9.035S0,97.541,0,102.531v157.083
	c0,4.99,4.045,9.035,9.035,9.035h34.081v53.609c0,3.438,1.95,6.577,5.032,8.1c1.269,0.628,2.638,0.935,4.002,0.935
	c1.948,0,3.883-0.629,5.49-1.858l79.49-60.787h12.253v152.395c0,4.99,4.045,9.035,9.035,9.035h53.784
	c4.99,0,9.035-4.045,9.035-9.035c0-4.99-4.045-9.035-9.035-9.035h-44.749V198.776h326.475v213.233h-31.925
	c-4.99,0-9.035,4.045-9.035,9.035v44.361l-67.396-51.539c-1.576-1.205-3.504-1.858-5.489-1.858H244.729
	c-4.99,0-9.035,4.045-9.035,9.035c0,4.99,4.045,9.035,9.035,9.035h132.297l79.49,60.787c1.606,1.229,3.541,1.858,5.49,1.858
	c1.363,0,2.733-0.308,4.002-0.935c3.082-1.523,5.032-4.662,5.032-8.1V430.08h31.925c4.99,0,9.035-4.045,9.035-9.035V189.741
	C512,184.751,507.955,180.706,502.965,180.706z"/>
<path d="M9.035,81.451c4.99,0,9.035-4.045,9.035-9.035v-35.07h326.475v121.202c0,4.99,4.045,9.035,9.035,9.035
	c4.99,0,9.035-4.045,9.035-9.035V28.311c0-4.99-4.045-9.035-9.035-9.035H9.035C4.045,19.275,0,23.321,0,28.311v44.105
	C0,77.406,4.045,81.451,9.035,81.451z"/>
<path d="M295.148,340.668c-4.99,0-9.035,4.045-9.035,9.035s4.045,9.035,9.035,9.035h26.508v15.596c0,4.99,4.045,9.035,9.035,9.035
	c4.99,0,9.035-4.045,9.035-9.035v-15.596h26.507c4.99,0,9.035-4.045,9.035-9.035v-43.106c0-4.99-4.045-9.035-9.035-9.035h-62.051
	v-25.035h62.051c4.99,0,9.035-4.045,9.035-9.035c0-4.99-4.045-9.035-9.035-9.035h-26.507v-15.597c0-4.99-4.045-9.035-9.035-9.035
	c-4.99,0-9.035,4.045-9.035,9.035v15.597h-26.508c-4.99,0-9.035,4.045-9.035,9.035v43.106c0,4.99,4.045,9.035,9.035,9.035h62.051
	v25.035H295.148z"/>
<path d="M272.56,88.076H90.055c-4.99,0-9.035,4.045-9.035,9.035c0,4.99,4.045,9.035,9.035,9.035H272.56
	c4.99,0,9.035-4.045,9.035-9.035C281.595,92.121,277.55,88.076,272.56,88.076z"/>
<path d="M272.56,134.391h-51.323c-4.99,0-9.035,4.045-9.035,9.035s4.045,9.035,9.035,9.035h51.323c4.99,0,9.035-4.045,9.035-9.035
	S277.55,134.391,272.56,134.391z"/>
<path d="M201.362,143.426c0-4.99-4.045-9.035-9.035-9.035H90.055c-4.99,0-9.035,4.045-9.035,9.035s4.045,9.035,9.035,9.035h102.271
	C197.316,152.462,201.362,148.416,201.362,143.426z"/>
<path d="M90.055,180.706c-4.99,0-9.035,4.045-9.035,9.035c0,4.99,4.045,9.035,9.035,9.035h33.605c4.99,0,9.035-4.045,9.035-9.035
	c0-4.99-4.045-9.035-9.035-9.035H90.055z"/>
<g>
</g>
<g>
</g>
<g>
</g>
<g>
</g>
<g>
</g>
<g>
</g>
<g>
</g>
<g>
</g>
<g>
</g>
<g>
</g>
<g>
</g>
<g>
</g>
<g>
</g>
<g>
</g>
<g>
</g>
</svg>
